<svg xmlns="http://www.w3.org/2000/svg" version="1.1" xmlns:xlink="http://www.w3.org/1999/xlink" xmlns:svgjs="http://svgjs.dev/svgjs" width="100%" height="100%" viewBox="0 0 1000 600"><rect width="1000" height="600" x="0" y="0" fill="#008011"/><g><circle r="166.66666666666666" cx="271.0645853678385" cy="293.286806140511" fill="#057fe8" transform="matrix(1.197342227652876,0,0,1.1973422276528762,0,-51.16464067976895)"/><path d="M211.81357655744696 290.19595131512267L211.81357655744696 290.19595131512267Q209.50097829592843 290.7807462778055 207.40103274811275 291.2592148836369Q205.30108720029708 291.7376834894683 203.2011416524814 292.50854957664114L203.2011416524814 292.50854957664114Q198.9746689676372 293.465486788304 196.68865229533154 290.4086040288255L196.68865229533154 290.4086040288255Q194.003911784833 286.7669263066641 196.31651004635154 282.7531063355227L196.31651004635154 282.7531063355227Q197.06079454431153 281.3974452856671 198.2303844696772 280.5468344308557Q199.37339280583004 279.6696419868314 200.70247226647288 278.92535748887144L200.70247226647288 278.92535748887144Q202.61634668979855 277.96842027720857 204.53022111312424 277.56969643901573Q206.4440955364499 277.1975541900357 208.3579699597756 277.0114830655457L208.3579699597756 277.0114830655457Q213.91352210526264 276.24061697837294 219.7614717320911 275.57607724805143Q225.5828397697067 274.88495592851723 231.13839191519378 274.88495592851723L231.13839191519378 274.88495592851723Q235.550935724528 274.88495592851723 239.85715317701076 274.9912822853686Q244.16337062949353 275.09760864222005 248.3632617251249 276.0545458538829L248.3632617251249 276.0545458538829Q250.09106502396057 276.24061697837294 251.81886832279625 276.90515670869434Q253.52009003241906 277.56969643901573 255.24789333125474 278.7127047751685L255.24789333125474 278.7127047751685Q257.9326338417533 280.8392319121971 256.9756966300904 283.49739083348277L256.9756966300904 283.49739083348277Q256.0187594184276 286.5808551821741 252.37708169626623 286.18213134398127L252.37708169626623 286.18213134398127Q248.17719060063487 285.80998909500124 244.16337062949353 285.80998909500124Q240.12296906913932 285.80998909500124 235.73700684901794 286.18213134398127L235.73700684901794 286.18213134398127Q235.3382830108251 286.3682024684713 234.67374328050371 286.3682024684713Q234.00920355018226 286.3682024684713 233.6370613012023 286.3682024684713L233.6370613012023 286.3682024684713Q230.95232079070377 287.13906855564414 230.55359695251093 287.4314660369855Q230.1814547035309 287.723863518327 230.1814547035309 290.4086040288255L230.1814547035309 290.4086040288255Q229.80931245455093 297.2932356349554 229.3308438487195 304.07154088423385Q228.8523752428881 310.8764277227251 228.26758028020524 317.76105932885497L228.26758028020524 317.76105932885497Q227.4967141930324 322.54574538716923 226.46003221373098 327.7291552836762Q225.39676864521672 332.8859835909704 224.43983143355388 337.8567407737747L224.43983143355388 337.8567407737747Q224.06768918457388 342.0832134586189 223.29682309740105 346.38943091110167Q222.52595701022818 350.69564836358444 221.94116204754536 355.08161058370575L221.94116204754536 355.08161058370575L221.94116204754536 356.43727163356147Q220.42601146241253 360.8232338536828 216.97040486474117 361.40802881636563L216.97040486474117 361.40802881636563Q212.7705137691098 361.40802881636563 211.22878159476411 356.9954850070314L211.22878159476411 356.9954850070314Q210.67056822129413 354.3107444965329 210.67056822129413 351.6525855752472Q210.67056822129413 348.9678450647487 210.45791550759128 346.4691756787402L210.45791550759128 346.4691756787402Q210.27184438310127 345.3261673425873 210.3781707399527 344.36923013092456Q210.45791550759128 343.4122929192617 210.08577325861128 342.4553557075988L210.08577325861128 342.4553557075988Q208.3579699597756 345.51223846707734 206.63016666093992 348.38305010206585Q204.92894495131708 351.25386173705436 203.0150705279914 353.938602247553L203.0150705279914 353.938602247553Q201.10119610466575 356.43727163356147 198.78859784314722 358.5372171813771Q196.50258117084152 360.6371627291929 193.817840660343 362.1788949035385L193.817840660343 362.1788949035385Q189.61794956471164 364.65098270033417 184.14214218686317 364.09276932686413Q178.69291639822757 363.5079743641813 174.8651675515762 359.30808326855L174.8651675515762 359.30808326855Q172.76522200376053 356.6233427580515 171.03741870492485 353.938602247553Q169.30961540608916 351.25386173705436 168.16660706993633 348.19697897757584L168.16660706993633 348.19697897757584Q166.43880377110065 343.5983640437517 165.40212179179923 338.7339332177989Q164.33885822328497 333.8429208026333 163.96671597430498 328.8721636198291L163.96671597430498 328.8721636198291Q162.6110549244493 318.53192541602783 162.90345240579072 308.1916872122266Q163.19584988713214 297.85144900842533 164.52492934777496 287.537792393837L164.52492934777496 287.537792393837Q165.88059039763067 277.96842027720857 168.35267819442632 268.7711904095602Q170.85134758043483 259.5739605419118 174.4930253025962 250.5893833879662L174.4930253025962 250.5893833879662Q179.46378248540043 239.2922079725021 187.70407514138597 228.95196976870088L187.70407514138597 228.95196976870088Q190.36223406267163 226.2938108474152 193.44569841136303 223.9014678182581Q196.50258117084152 221.509124789101 200.1442588930029 219.78132149026533L200.1442588930029 219.78132149026533Q205.1150160758071 217.68137594244965 211.52117907610554 218.53198679726106Q217.927342076404 219.3825976520725 222.52595701022818 225.52294476024238L222.52595701022818 225.52294476024238Q224.81197368253387 228.76589864421086 226.72584810585954 232.11517888503082Q228.63972252918524 235.46445912585077 229.4105886163581 239.690931810695L229.4105886163581 239.690931810695Q229.59665974084808 240.6478690223578 229.5169149732095 241.79087735851064Q229.4105886163581 242.9338856946635 229.03844636737807 243.89082290632632L229.03844636737807 243.89082290632632Q228.45365140469522 245.618626205162 227.3106430685424 245.91102368650343Q226.16763473238956 246.176839578632 224.81197368253387 244.84776011798917L224.81197368253387 244.84776011798917Q224.06768918457388 244.07689403081633 223.48289422189103 243.2262831760049Q222.8980992592082 242.34909073198065 222.1538147612482 241.60480623402066L222.1538147612482 241.60480623402066Q220.7981537113925 239.690931810695 218.99060564491828 238.04287327949785Q217.15647598923115 236.42139633751358 215.05653044141548 235.27838800136075L215.05653044141548 235.27838800136075Q212.5844426446198 233.73665582701508 210.5642418644427 234.0290533083565Q208.5440410842656 234.32145078969793 206.4440955364499 235.8631829640436L206.4440955364499 235.8631829640436Q203.2011416524814 238.33527076083928 200.70247226647288 241.60480623402066Q198.2303844696772 244.84776011798917 196.1038573326487 248.30336671566053L196.1038573326487 248.30336671566053Q192.27610848599733 254.78927448359755 189.61794956471164 261.70048767894025Q186.93320905421314 268.58511928507016 185.20540575537746 275.84189314018L185.20540575537746 275.84189314018Q183.10546020756178 284.0821857961656 182.14852299589893 292.5882943442797Q181.1915857842361 301.1209844816067 180.79286194604325 309.7334193865722L180.79286194604325 309.7334193865722Q180.79286194604325 316.6180509927022 181.27133055187466 323.60900895568346Q181.7497991577061 330.59996691866473 183.66367358103176 337.48459852479465L183.66367358103176 337.48459852479465Q184.6206107926946 341.68448962042595 186.5344852160203 345.51223846707734L186.5344852160203 345.51223846707734Q187.49142242768312 347.2400417659131 188.07621739036597 347.34636812276455Q188.66101235304882 347.4261128904031 189.99009181369166 346.0970334297602L189.99009181369166 346.0970334297602Q192.86090344868018 343.7844351682417 194.77477787200584 340.83387876561454Q196.68865229533154 337.8567407737747 198.41645559416722 334.61378688980614L198.41645559416722 334.61378688980614Q200.70247226647288 329.82910083149187 202.53660192216 324.75201729183635Q204.34414998863423 319.6749337521807 205.88588216297993 314.89024769386646L205.88588216297993 314.89024769386646Q208.75669379796847 305.3208755772381 211.04271047027413 295.9375745850997L211.04271047027413 295.9375745850997Q211.81357655744696 293.65155791279403 211.81357655744696 290.19595131512267ZM257.3478388790704 332.11511750379765L257.3478388790704 332.11511750379765Q257.3478388790704 323.1305403498521 259.9528346219304 314.8105029262279Q262.5312487755775 306.4638839133909 266.7311398712088 298.4362439711082L266.7311398712088 298.4362439711082Q268.8310854190245 294.6084951244568 271.701897054013 291.15288852678543Q274.57270868900156 287.723863518327 278.2143864111629 285.2251941323184L278.2143864111629 285.2251941323184Q283.18514359396715 281.79616912385995 288.55462461496415 281.2113741611771L288.55462461496415 281.2113741611771Q294.2962478849412 280.8392319121971 298.8948628187654 283.7100435471856Q303.49347775258957 286.5808551821741 305.96556554938525 291.4452860081269Q308.4642349353938 296.33629842329253 307.50729772373097 302.4500639422496L307.50729772373097 302.4500639422496Q307.32122659924096 304.1778672410852 306.7364316365581 306.09174166441096Q306.15163667387526 308.0056160877366 305.1946994622124 309.7334193865722L305.1946994622124 309.7334193865722Q302.7226116654167 314.51810544488643 299.3733314245968 318.8243228973693Q296.02405118377686 323.1305403498521 291.23936512546265 326.3734942338205L291.23936512546265 326.3734942338205Q288.18248236598413 328.4734397816363 284.83320212516423 329.90884559913053Q281.48392188434434 331.3442514166248 277.65617303769295 331.1581802921348L277.65617303769295 331.1581802921348Q276.30051198783724 331.1581802921348 276.0081145064958 331.5569041303276Q275.7422986143672 331.92904637930764 275.7422986143672 333.2581258399504L275.7422986143672 333.2581258399504Q275.5296459006644 336.34159018864176 276.1144408633472 339.3984729481203Q276.6992358260301 342.4553557075988 277.65617303769295 345.51223846707734L277.65617303769295 345.51223846707734Q278.7991813738457 348.01090785308594 279.7561185855086 348.38305010206585Q280.7130557971715 348.7817739402587 283.18514359396715 347.2400417659131L283.18514359396715 347.2400417659131Q286.8268213161285 345.3261673425873 289.697632951117 342.0832134586189L289.697632951117 342.0832134586189Q291.42543624995267 340.5414812842732 293.15323954878835 339.29214659126893Q294.88104284762403 338.0428118982647 296.58226455724684 336.7137324376218L296.58226455724684 336.7137324376218Q297.3531306444197 335.9428663504489 298.8948628187654 335.17200026327606L298.8948628187654 335.17200026327606Q301.76567445375395 334.2150630516133 303.7592936447181 335.65046886910756Q305.77949442489523 337.0858746866018 305.77949442489523 340.16933903529315L305.77949442489523 340.16933903529315Q305.77949442489523 341.49841849593605 305.5934233004053 342.82749795657884Q305.40735217591526 344.18315900643455 305.0086283377224 345.51223846707734L305.0086283377224 345.51223846707734Q302.53654054092675 352.7955939114001 297.93792560710256 358.1384933431843Q293.33931067327836 363.5079743641813 285.49774185548563 366.0066437501899L285.49774185548563 366.0066437501899Q274.57270868900156 368.8774553851784 266.5450687467188 360.8232338536828L266.5450687467188 360.8232338536828Q262.3451776510875 356.6233427580515 260.6173743522518 351.4399328615444Q258.88957105341615 346.2831045542502 257.9326338417533 340.7275524087632L257.9326338417533 340.7275524087632Q257.74656271726326 338.62760686094754 257.64023636041185 336.4213349562804Q257.56049159277325 334.2150630516133 257.3478388790704 332.11511750379765ZM293.15323954878835 300.53618951892383L293.15323954878835 300.53618951892383Q293.15323954878835 299.20711005828105 292.9671684242984 298.1438464897668Q292.7545157105955 297.1071645104654 291.7975784989327 296.70844067227256L291.7975784989327 296.70844067227256Q290.4684990382898 295.9375745850997 288.36855349047414 297.6653778839353L288.36855349047414 297.6653778839353Q287.5976874033013 298.06410172212816 287.01289244061843 298.6223150955982Q286.4546790671485 299.20711005828105 285.68381297997564 299.9779761454539L285.68381297997564 299.9779761454539Q283.18514359396715 303.03485890493243 281.5636666519829 306.6765366270938Q279.9421897099986 310.29163276004226 278.6131102493557 313.9333104822036L278.6131102493557 313.9333104822036Q277.65617303769295 315.2889715320593 278.7991813738457 316.03325603001934L278.7991813738457 316.03325603001934Q279.17132362282575 316.4319798682122 279.83586335314715 316.3256535113607Q280.52698467268146 316.24590874372217 280.8991269216614 316.03325603001934L280.8991269216614 316.03325603001934Q289.51156182662703 311.24856997170514 292.9671684242984 301.89185056877955L292.9671684242984 301.89185056877955Q293.15323954878835 301.4931267305867 293.15323954878835 301.01465812475533Q293.15323954878835 300.53618951892383 293.15323954878835 300.53618951892383ZM379.2775885984439 324.08747756151496L379.2775885984439 324.08747756151496Q378.32065138678115 342.82749795657884 365.4817437969714 359.09543055484716L365.4817437969714 359.09543055484716Q363.1957271246657 362.1788949035385 360.13884436518714 364.3585852189927Q357.08196160570856 366.5648571236598 353.2542127590573 367.7078654598127L353.2542127590573 367.7078654598127Q345.7847861902445 369.4356687586483 338.9001545841147 366.0066437501899L338.9001545841147 366.0066437501899Q336.4014851981062 364.46491157584416 334.11546852580045 362.25863967117704Q331.802870264282 360.0523677665099 330.28771967914906 357.58027996971424L330.28771967914906 357.58027996971424Q325.2903809071321 349.73871115192156 323.5891591975092 341.3920921390846Q321.86135589867354 333.0720547154604 322.4195692721436 324.27354868600486L322.4195692721436 324.27354868600486Q323.1904353593164 316.4319798682122 325.87517586981494 309.25495078074084Q328.55991638031344 302.07792169326956 333.7167446876076 296.1502272988025L333.7167446876076 296.1502272988025Q338.12928849694185 291.36554124048837 344.2430540158988 290.19595131512267L344.2430540158988 290.19595131512267Q347.11386565088736 289.4516668171626 349.4264639124059 290.116206547484Q351.71248058471156 290.7807462778055 353.81242613252726 292.50854957664114L353.81242613252726 292.50854957664114Q354.39722109521006 293.0667629501112 355.1680871823829 293.17308930696254Q355.9123716803429 293.279415663814 356.86930889200573 293.279415663814L356.86930889200573 293.279415663814Q362.05271878851283 292.69462070113116 366.1728651165056 294.7945662489468Q370.26642985528554 296.89451179676246 373.3498942039769 301.1209844816067L373.3498942039769 301.1209844816067Q376.7789192124354 305.90567053992095 378.02825390543967 311.3548963285565Q379.2775885984439 316.8041221171922 379.2775885984439 324.08747756151496ZM352.0846228336916 309.7334193865722L352.0846228336916 309.7334193865722Q349.98467728587593 309.7334193865722 347.69866061357027 310.29163276004226L347.69866061357027 310.29163276004226Q345.7847861902445 310.29163276004226 344.82784897858164 311.24856997170514Q343.8709117669189 312.20550718336796 343.100045679746 313.9333104822036L343.100045679746 313.9333104822036Q340.4153051692475 321.0305948020363 340.3355604016089 328.10129753265625Q340.2292340447575 335.17200026327606 342.32917959257315 342.4553557075988L342.32917959257315 342.4553557075988Q343.47218792872604 345.51223846707734 345.97085731473453 348.7817739402587L345.97085731473453 348.7817739402587Q347.2999367753774 350.1108534009016 347.99105809491164 350.21717975775294Q348.6555978252331 350.2969245253916 349.98467728587593 348.9678450647487L349.98467728587593 348.9678450647487Q351.71248058471156 347.2400417659131 353.3339575266958 345.4324936994388Q354.9554344686801 343.5983640437517 356.1250243940458 341.49841849593605L356.1250243940458 341.49841849593605Q357.08196160570856 339.2124018236303 358.11864358501 336.7137324376218Q359.1819071535243 334.2150630516133 359.74012052699425 331.7429752548176L359.74012052699425 331.7429752548176Q360.6970577386571 328.10129753265625 361.28185270134 324.3798750428563Q361.8666476640228 320.6318709638435 360.90971045236006 316.8041221171922L360.90971045236006 316.8041221171922Q359.9527732406972 312.7903021460508 358.0388988173715 311.24856997170514Q356.1250243940458 309.7334193865722 352.0846228336916 309.7334193865722Z " fill="#0be635" transform="matrix(1.197342227652876,0,0,1.1973422276528762,0,-51.16464067976895)"/><path d="M556.2927610443323 302.5073674175562L556.2927610443323 302.5073674175562Q555.6404113009756 303.8120669042696 555.0780408325647 304.77934410993646Q554.5156703641537 305.7466213156032 553.7058568896421 306.73639334000654L553.7058568896421 306.73639334000654Q552.5586211340838 308.6709477513401 551.1189527349517 310.5380177064644Q549.6567895170833 312.40508766158877 547.8796988369047 313.68729232956576L547.8796988369047 313.68729232956576Q543.830631464346 316.76908249645766 539.4441418107406 316.6116187653026Q535.0801469758717 316.4541550341475 531.3460070656231 313.21490113610054L531.3460070656231 313.21490113610054Q529.8838438477546 311.75273791823207 528.669123635987 310.2005954254179Q527.4544034242194 308.6709477513401 526.6445899497076 306.8938570711616L526.6445899497076 306.8938570711616Q521.1558541780169 294.7466549534853 521.0658749030711 282.50947356086317Q520.9758956281253 270.29478698697756 527.1394759619093 258.14758486930134L527.1394759619093 258.14758486930134Q530.2212661288012 252.29893199782757 534.7427246948251 248.90221436862547L534.7427246948251 248.90221436862547Q539.9390278229423 244.8531469960667 545.3602791384237 243.72840605924483Q550.7815304539051 242.58117030368652 556.787647056534 245.66296047057847L556.787647056534 245.66296047057847Q557.5974605310457 246.000382751625 558.227315455666 246.06786720783433Q558.8796651990226 246.1578464827801 559.5320149423794 245.5054967394234L559.5320149423794 245.5054967394234Q563.0861963027364 241.45642936686463 567.945077149807 243.57094232808976L567.945077149807 243.57094232808976Q570.5544761232338 244.38075580260153 571.7691963350014 246.31531021393513Q572.983916546769 248.24986462526877 573.2988440090792 250.85926359869555L573.2988440090792 250.85926359869555L573.2988440090792 252.79381801002918Q572.983916546769 272.88169114166794 572.3315668034123 292.7896057234152L572.3315668034123 292.7896057234152Q571.9941445223658 303.65460317311454 571.5217533289006 314.8345280851241Q571.0268673166989 325.99195817839706 571.6792170600556 337.01441935925146L571.6792170600556 337.01441935925146Q571.9941445223658 342.68311368083374 572.4890305345674 348.351808002416Q572.983916546769 354.0205023239983 573.1413802779241 359.6891966455806L573.1413802779241 359.6891966455806Q573.1413802779241 360.49901012009235 573.1413802779241 361.5562666007049Q573.1413802779241 362.6135230813174 572.8039579968776 363.58080028698424L572.8039579968776 363.58080028698424Q572.6464942657225 367.1349816473415 568.9348491742103 368.1022588530082L568.9348491742103 368.1022588530082Q565.6955952761632 368.91207232752 563.4236185837831 366.16770444167463L563.4236185837831 366.16770444167463Q562.2763828282248 364.86300495496124 561.5565486286587 363.3333572808835Q560.8367144290928 361.80370960680574 560.4992921480462 360.1840826577822L560.4992921480462 360.1840826577822Q558.8796651990226 354.83031579851007 557.7549242622008 349.31908520808287Q556.6076885066425 343.80785461765566 556.2927610443323 338.31911884596485L556.2927610443323 338.31911884596485Q556.1352973131773 334.09009292351465 556.1352973131773 329.9735410947465Q556.1352973131773 325.834494447242 556.1352973131773 321.78542707468324L556.1352973131773 321.78542707468324Q556.2927610443323 317.5788959709694 556.4502247754874 313.3723648672556Q556.6076885066425 309.16583376354174 556.6076885066425 304.93680784109154L556.6076885066425 304.93680784109154Q556.6076885066425 304.4644166476263 556.6076885066425 303.8120669042696Q556.6076885066425 303.1597171609129 556.2927610443323 302.5073674175562ZM539.7815640917872 299.6055358005558L539.7815640917872 299.6055358005558Q540.906305028609 298.79572232604403 541.311211765865 298.14337258268733Q541.7161185031208 297.49102283933064 542.0310459654308 297.0186316458654L542.0310459654308 297.0186316458654Q543.3357454521442 294.40923267243875 544.3930019327569 291.91230779269415Q545.4502584133695 289.39288809421316 546.5749993501913 286.8059839395228L546.5749993501913 286.8059839395228Q548.8469760425714 281.1372896179405 550.3091392604399 275.4685952963582Q551.748807659572 269.79990097477594 552.8960434151303 263.9737429220387L552.8960434151303 263.9737429220387Q553.2109708774403 261.70176622965846 552.8960434151303 260.8019734802009Q552.5586211340838 259.92467554947984 550.466602991595 259.1148620749682L550.466602991595 259.1148620749682Q549.0044397737265 258.4625123316114 547.6997402870131 258.70995533771224Q546.4175356190362 258.9573983438131 545.1128361323229 259.76721181832477L545.1128361323229 259.76721181832477Q541.8735822342759 262.1966522418601 540.0964915540973 266.4031833455739L540.0964915540973 266.4031833455739Q536.0474241815385 274.5013180906915 536.2048879126936 282.75691656696404Q536.3623516438487 291.0125150432366 539.7815640917872 299.6055358005558ZM625.1269063778313 297.6484865704857L625.1269063778313 297.6484865704857Q624.4745566344747 298.79572232604403 623.7547224349087 299.7629995317109Q623.0123934166062 300.7302767373776 622.2025799420944 301.8775124929359L622.2025799420944 301.8775124929359Q621.0778390052726 303.49713944195946 619.7056550623499 305.0267871160372Q618.3334711194273 306.55643479011496 616.7138441704037 307.86113427682835L616.7138441704037 307.86113427682835Q611.3600773111316 311.75273791823207 606.1862690017509 310.94292444372036Q600.9899658736338 310.1331109692086 597.4357845132768 307.20878453347166L597.4357845132768 307.20878453347166Q593.0492948596714 303.49713944195946 591.1147404483377 298.4583000449975L591.1147404483377 298.4583000449975Q586.5707870635773 288.26814715739124 585.8509528640113 277.5831082575834Q585.1311186644454 266.8755745390391 587.5605590879807 256.19053563923126L587.5605590879807 256.19053563923126Q588.5278362936474 251.17419106100564 591.9245539228496 248.4298231751603L591.9245539228496 248.4298231751603Q593.3867171407179 247.1251236884469 595.0063440897414 246.56275322003597Q596.6259710387649 246.000382751625 598.4030617189435 246.96765995729183L598.4030617189435 246.96765995729183Q600.1801523991221 247.62000970064852 600.9899658736338 249.14965737472627Q601.7997793481456 250.67930504880403 601.7997793481456 252.47889054771903L601.7997793481456 252.47889054771903Q601.7997793481456 253.91855894685105 601.7997793481456 255.38072216471951Q601.7997793481456 256.84288538258795 601.6423156169906 258.14758486930134L601.6423156169906 258.14758486930134Q600.9899658736338 263.1639294475269 600.9899658736338 268.2702533006982Q600.9899658736338 273.35408233513317 601.6423156169906 278.5503854632502L601.6423156169906 278.5503854632502Q601.9572430793006 282.10456682360734 602.6995720976031 285.5912637277552Q603.4194062971691 289.077960631903 605.0390332461926 292.31721452995L605.0390332461926 292.31721452995Q605.3764555272392 292.9695642733067 605.6913829895493 293.2844917356168L605.6913829895493 293.2844917356168Q606.658660195216 295.0615824157953 607.4684736697279 295.399004696842Q608.2782871442396 295.713932159152 610.0553778244182 294.7466549534853L610.0553778244182 294.7466549534853Q613.7895177346668 292.47467826110505 615.904030695892 288.92049690074793L615.904030695892 288.92049690074793Q618.3334711194273 285.83870673385593 619.6156757874041 282.2620305547624Q620.9203752741175 278.7078491944053 621.7301887486293 275.1536678340482L621.7301887486293 275.1536678340482Q623.1923519664978 269.3050149625743 623.6647431599629 263.321393178682Q624.1596291721646 257.33777139478957 624.0021654410095 251.33165479216072L624.0021654410095 251.33165479216072Q624.0021654410095 246.31531021393513 627.8712742636767 243.57094232808976L627.8712742636767 243.57094232808976Q631.1105281617238 241.29896563570958 635.0921110780732 242.58117030368652Q639.0511991756862 243.88586979039988 640.1984349312445 248.90221436862547L640.1984349312445 248.90221436862547Q640.8282898558648 251.4891185233158 640.9182691308106 254.16600195295186Q641.0082484057563 256.84288538258795 640.6708261247097 259.5872532684333L640.6708261247097 259.5872532684333Q640.5133623935546 268.02281029459743 640.3558986623996 276.3683880458158Q640.1984349312445 284.6914709782976 640.6708261247097 293.12702800446175L640.6708261247097 293.12702800446175Q641.0082484057563 297.1760953770205 640.8282898558648 301.5400902118894Q640.6708261247097 305.9265798654948 640.5133623935546 310.1331109692086L640.5133623935546 310.1331109692086Q640.018476381353 313.68729232956576 636.7792224833061 315.1494555474341L636.7792224833061 315.1494555474341Q635.1595955342825 315.8018052907908 633.539968585259 315.1494555474341Q631.9203416362355 314.4971058040774 630.7956006994136 313.21490113610054L630.7956006994136 313.21490113610054Q629.8283234937468 312.0676653805422 629.2659530253359 311.01040889992964Q628.6810877381885 309.9756472380535 628.3661602758784 308.8284114824952L628.3661602758784 308.8284114824952Q627.3988830702116 306.08404359664974 626.6565540519091 303.317180892068Q625.9367198523431 300.57281300622265 625.1269063778313 297.6484865704857ZM662.8732122175736 231.89613140387866L662.8732122175736 231.89613140387866Q658.1717951016582 234.0106443651038 654.7750774724561 230.6139267359017L654.7750774724561 230.6139267359017Q653.6278417168978 229.30922724918835 653.3129142545877 227.1947142879632Q652.9754919735411 225.10269614547448 653.7853054480529 223.14564691540443L653.7853054480529 223.14564691540443Q654.7750774724561 221.05362877291574 657.0245593460999 219.68144482999304Q659.2965360384801 218.28676606833392 661.5685127308602 218.28676606833392L661.5685127308602 218.28676606833392Q666.2699298467758 218.28676606833392 667.8895567957992 222.67325572193923L667.8895567957992 222.67325572193923Q668.699370270311 224.60781013327286 668.1369998019001 226.63234381955226Q667.5521345147527 228.65687750583166 665.775043834574 230.1190407237001L665.775043834574 230.1190407237001Q665.1226940912173 230.77139046705676 664.4028598916514 231.17629720431265Q663.6830256920854 231.58120394156853 662.8732122175736 231.89613140387866ZM669.3517200136677 299.1106497883542L669.3517200136677 299.1106497883542Q669.9815749382878 302.5073674175562 667.2372070524425 303.9695306354247L667.2372070524425 303.9695306354247Q664.3128806167056 305.43169385329315 661.4110489997051 303.317180892068L661.4110489997051 303.317180892068Q660.1063495129918 302.1924399552461 659.4539997696352 300.7302767373776Q658.8241448450149 299.26811351950926 658.1717951016582 297.6484865704857L658.1717951016582 297.6484865704857Q657.6769090894566 295.399004696842 657.2720023522006 292.9695642733067Q656.8670956149448 290.5401238497715 656.5521681526346 288.26814715739124L656.5521681526346 288.26814715739124Q655.5848909469678 280.17001241227376 655.0000256598205 271.9818983922104Q654.4376551914095 263.8162791908836 655.0900049347663 255.71814444576606L655.0900049347663 255.71814444576606Q655.2474686659212 253.91855894685105 655.5848909469678 252.07398381046315Q655.8998184092779 250.20691385533885 657.0245593460999 248.58728690631534L657.0245593460999 248.58728690631534Q657.8343728206116 246.96765995729183 659.2290515822708 246.000382751625Q660.6012355251935 245.01061072722177 662.5357899365271 245.01061072722177L662.5357899365271 245.01061072722177Q666.2699298467758 245.19056927711327 667.8895567957992 248.90221436862547L667.8895567957992 248.90221436862547Q669.3517200136677 251.82654080436234 669.3517200136677 255.22325843356444L669.3517200136677 255.22325843356444L669.3517200136677 277.5831082575834Q669.1717614637762 279.51766266891707 669.0142977326211 282.2620305547624Q668.856834001466 285.0288932593443 668.856834001466 288.26814715739124L668.856834001466 288.26814715739124Q668.856834001466 290.8550513120815 668.9468132764117 293.599419197927Q669.0142977326211 296.36628190250883 669.3517200136677 299.1106497883542ZM697.3577693405324 294.2517689412837L697.3577693405324 294.2517689412837Q700.4395595074244 294.2517689412837 702.9589792059054 294.2517689412837Q705.45590408565 294.2517689412837 708.0428082403403 294.5891912223302L708.0428082403403 294.5891912223302Q716.4783652665044 294.5891912223302 724.2390777305753 297.6484865704857L724.2390777305753 297.6484865704857Q725.3863134861336 298.3008363138424 726.2636114168547 299.0431653321448Q727.1634041663121 299.7629995317109 727.6582901785139 300.8877404685327L727.6582901785139 300.8877404685327Q728.6255673841807 302.6873259674477 727.7257746347232 304.05950991037037Q726.8484767040021 305.43169385329315 725.0488912050871 305.2742301221381L725.0488912050871 305.2742301221381Q724.0816139994204 305.2742301221381 723.3617797998543 305.116766390983Q722.6194507815518 304.93680784109154 721.80963730704 304.93680784109154L721.80963730704 304.93680784109154Q718.9078056900396 304.6218803787814 716.0734585292486 305.0267871160372Q713.2391113684573 305.43169385329315 710.4722486638756 305.9265798654948L710.4722486638756 305.9265798654948Q706.1082538290067 306.8938570711616 701.7442589941378 307.4562275395725Q697.3577693405324 308.0185980079834 692.9937745056635 307.7036705456733L692.9937745056635 307.7036705456733Q690.8792615444384 307.36624826462673 689.012191589314 306.80387779621583Q687.1676164529263 306.2415073278048 685.3680309540111 304.93680784109154L685.3680309540111 304.93680784109154Q680.3516863757857 301.3826264807343 681.9713133248091 295.2190461469504L681.9713133248091 295.2190461469504Q682.6236630681658 292.31721452995 684.738176029391 289.7303103752597L684.738176029391 289.7303103752597Q688.9447071331048 284.3765435159876 693.8035879801753 279.8325901312271Q698.6624688272459 275.31113156520314 703.6788134054714 270.92464191159786L703.6788134054714 270.92464191159786Q706.4231812913167 268.67516003795413 709.1000647209529 266.4031833455739Q711.776948150589 264.1312066531938 714.0489248429691 261.5443024985034L714.0489248429691 261.5443024985034Q715.0162020486359 260.8919527551467 715.0162020486359 260.0821392806349L715.0162020486359 260.0821392806349Q711.4620206882788 260.0821392806349 707.975323784131 260.64450974904594Q704.4886268799831 261.20688021745684 700.934445519626 262.0166936919686L700.934445519626 262.0166936919686Q698.8199325584009 262.35411597301515 696.6379351409664 262.8265071664804Q694.455937723532 263.321393178682 692.1839610311517 263.63632064099204L692.1839610311517 263.63632064099204Q690.5643340821283 264.1312066531938 689.1021708642598 263.9737429220387L689.1021708642598 263.9737429220387Q687.7974713775465 263.63632064099204 686.6727304407245 263.07395017258114Q685.5479895039027 262.51157970417023 684.895639760546 261.04941648630177L684.895639760546 261.04941648630177Q683.9283625548792 258.3050486004564 685.8629169662129 255.87560817692113L685.8629169662129 255.87560817692113Q686.9876579030347 254.57090869020774 688.2923573897481 253.85107449064176Q689.5970568764615 253.10874547233928 690.7217978132834 252.47889054771903L690.7217978132834 252.47889054771903Q696.5479558660206 250.20691385533885 702.6215569248589 248.65477136252466Q708.695157983697 247.1251236884469 714.8587383174809 247.1251236884469L714.8587383174809 247.1251236884469Q719.7176191645514 247.1251236884469 724.0816139994204 248.58728690631534L724.0816139994204 248.58728690631534Q728.6255673841807 250.20691385533885 730.1552150582585 254.00853822179684Q731.7073575510726 257.8101625882548 729.4353808586925 262.0166936919686L729.4353808586925 262.0166936919686Q727.6582901785139 265.43590613990705 724.733963742777 268.3377377569076L724.733963742777 268.3377377569076Q722.1470595880867 270.92464191159786 719.0652694211947 273.44406161007885Q715.9834792543027 275.96348130855984 713.0816476373022 278.7078491944053L713.0816476373022 278.7078491944053Q711.2820621383873 280.3274761434287 709.1900439958986 281.94710309245227Q707.0755310346735 283.5667300414758 705.2984403544949 285.3438207216543L705.2984403544949 285.3438207216543Q703.3638859431612 287.3008699517244 701.3393522568819 289.39288809421316Q699.3148185706025 291.5074010554382 697.3577693405324 294.2517689412837Z " fill="#fcedda" transform="matrix(1.197342227652876,0,0,1.1973422276528762,0,-51.16464067976895)"/></g></svg>